# xmcd
#
# Track frame offsets:
#	150
#	16591
#	33354
#	53570
#	70569
#	87872
#	103558
#	119142
#	134968
#	152586
#	166694
#	182557
#	201778
#
# Disc length: 2911 seconds
#
# Revision: 1
# Processed by: cddbd v1.5.2PL0 Copyright (c) Steve Scherf et al.
# Submitted via: audiograbber 1.83.01
#
DISCID=a10b5d0d
DTITLE=тсакийгс (BY DJ ZRAF) - емова бяадуа
DYEAR=2007
DGENRE=каийа
TTITLE0=йаи кееи кееи
TTITLE1=йакутеяа пакиопаидо
TTITLE2=емова бяадуа
TTITLE3=ам л' ацапас
TTITLE4=памтоу лафи
TTITLE5=фыг пиа дем еимаи
TTITLE6=ваяисла соу
TTITLE7=тетоиа ыяа
TTITLE8=еилаи дийос соу
TTITLE9=аяяыстес мувтес
TTITLE10=дем текеиымеи г ацапг
TTITLE11=ха упаявы стг фыг соу
TTITLE12=ока лас выяифоум ока лас емымоум
EXTD=
EXTT0=
EXTT1=
EXTT2=
EXTT3=
EXTT4=
EXTT5=
EXTT6=
EXTT7=
EXTT8=
EXTT9=
EXTT10=
EXTT11=
EXTT12=
PLAYORDER=
